<?xml version="1.0" encoding="UTF-8" standalone="no"?>
<!-- Generator: Adobe Illustrator 20.1.0, SVG Export Plug-In . SVG Version: 6.00 Build 0)  -->

<svg
   xmlns:dc="http://purl.org/dc/elements/1.1/"
   xmlns:cc="http://creativecommons.org/ns#"
   xmlns:rdf="http://www.w3.org/1999/02/22-rdf-syntax-ns#"
   xmlns:svg="http://www.w3.org/2000/svg"
   xmlns="http://www.w3.org/2000/svg"
   xmlns:sodipodi="http://sodipodi.sourceforge.net/DTD/sodipodi-0.dtd"
   xmlns:inkscape="http://www.inkscape.org/namespaces/inkscape"
   version="1.0"
   x="0px"
   y="0px"
   viewBox="0 0 900 900"
   style="enable-background:new 0 0 900 900;"
   xml:space="preserve"
   id="svg4244"
   inkscape:version="0.91 r13725"
   sodipodi:docname="outline.svg"><metadata
     id="metadata4261"><rdf:RDF><cc:Work
         rdf:about=""><dc:format>image/svg+xml</dc:format><dc:type
           rdf:resource="http://purl.org/dc/dcmitype/StillImage" /></cc:Work></rdf:RDF></metadata><defs
     id="defs4259" /><sodipodi:namedview
     pagecolor="#ffffff"
     bordercolor="#666666"
     borderopacity="1"
     objecttolerance="10"
     gridtolerance="10"
     guidetolerance="10"
     inkscape:pageopacity="0"
     inkscape:pageshadow="2"
     inkscape:window-width="1920"
     inkscape:window-height="1020"
     id="namedview4257"
     showgrid="false"
     inkscape:zoom="0.93111111"
     inkscape:cx="450"
     inkscape:cy="450"
     inkscape:window-x="0"
     inkscape:window-y="31"
     inkscape:window-maximized="1"
     inkscape:current-layer="svg4244" /><style
     type="text/css"
     id="style4246">
	.st0{clip-path:url(#SVGID_2_);}
	.st1{clip-path:url(#SVGID_6_);}
	.st2{fill:none;stroke:#FF0606;stroke-miterlimit:10;}
	.st3{fill:none;stroke:#2F00DB;stroke-miterlimit:10;}
	.st4{display:none;}
	.st5{display:inline;fill:none;stroke:#FF0606;stroke-miterlimit:10;}
	.st6{fill:none;stroke:#2F00DB;stroke-width:3;stroke-miterlimit:10;}
	.st7{fill:#2F00DB;}
	.st8{fill:url(#);stroke:url(#);stroke-miterlimit:10;}
	.st9{fill:none;}
	.st10{fill:none;stroke:#000000;stroke-width:2;stroke-linecap:round;stroke-miterlimit:10;}
	.st11{fill:none;stroke:#000000;stroke-linecap:round;stroke-miterlimit:10;}
</style><g
     id="Layer_1" /><g
     id="outer_1" /><g
     id="outer_2" /><g
     id="foldline"
     class="st4" /><g
     id="inline" /><path
     style="fill:#cccccc"
     inkscape:connector-curvature="0"
     id="path4254"
     d="m 380.2,194.8 c -17,43 -50.8,129.2 -57.7,161.7 -4.9,23.2 -6,45 -27,129 -21,84 -54,148.5 -127.5,243 C 94.5,823 0,822 0,822 c 0,0 -94.5,1 -168,-93.5 -73.5,-94.5 -106.5,-159 -127.5,-243 -21,-84 -22.1,-105.8 -27,-129 -6.8,-32.5 -40.7,-118.7 -57.7,-161.7 -17,-43 -21.5,-78.5 -21.5,-78.5 23.3,-12.8 133.8,-72.4 228.4,-45.8 l 18.7,0.2 c 0,0 37.7,279.2 39.6,302.7 1.9,23.5 5.9,35.4 -3.2,55 l -5.6,14.8 c 0,0 13.6,-35.3 21,-52.4 7.5,-17.1 9.6,-16.9 23.7,-16.9 l 79.1,0 79.1,0 c 14,0 16.2,-0.2 23.7,16.9 7.5,17.1 21,52.4 21,52.4 l -5.6,-14.8 c -9.1,-19.7 -5.1,-31.5 -3.2,-55 1.9,-23.5 39.6,-302.7 39.6,-302.7 l 18.7,-0.2 c 94.6,-26.6 205,33 228.4,45.8 0,0 -4.5,35.5 -21.5,78.5 z"
     class="st7"
     sodipodi:nodetypes="scsscsscscccscccscssccscccs" /><g
     id="fill" /></svg>