<?xml version="1.0" encoding="utf-8"?>
<!-- Generator: Adobe Illustrator 20.1.0, SVG Export Plug-In . SVG Version: 6.00 Build 0)  -->
<svg version="1.0" xmlns="http://www.w3.org/2000/svg" xmlns:xlink="http://www.w3.org/1999/xlink" x="0px" y="0px"
	 viewBox="0 0 900 900" style="enable-background:new 0 0 900 900;" xml:space="preserve">
<style type="text/css">
	.st0{clip-path:url(#SVGID_2_);}
	.st1{clip-path:url(#SVGID_6_);}
	.st2{fill:none;stroke:#FF0606;stroke-miterlimit:10;}
	.st3{fill:none;stroke:#2F00DB;stroke-miterlimit:10;}
	.st4{display:none;}
	.st5{display:inline;fill:none;stroke:#FF0606;stroke-miterlimit:10;}
	.st6{fill:none;stroke:#2F00DB;stroke-width:3;stroke-miterlimit:10;}
	.st7{fill:#2F00DB;}
	.st8{fill:url(#);stroke:url(#);stroke-miterlimit:10;}
	.st9{fill:none;}
	.st10{fill:none;stroke:#000000;stroke-width:2;stroke-linecap:round;stroke-miterlimit:10;}
	.st11{fill:none;stroke:#000000;stroke-linecap:round;stroke-miterlimit:10;}
</style>
<g id="Layer_1">
</g>
<g id="outer_1">
</g>
<g id="outer_2">
</g>
<g id="foldline" class="st4">
</g>
<g id="inline">
</g>
<g id="outline">
	<path class="st7" d="M0,0v900h900V0H0z M830.2,194.8c-17,43-50.8,129.2-57.7,161.7c-4.9,23.2-6,45-27,129
		c-21,84-54,148.5-127.5,243S450,822,450,822s-94.5,1-168-93.5s-106.5-159-127.5-243s-22.1-105.8-27-129
		c-6.8-32.5-40.7-118.7-57.7-161.7s-21.5-78.5-21.5-78.5c23.3-12.8,133.8-72.4,228.4-45.8l18.7,0.2c0,0,37.7,279.2,39.6,302.7
		c1.9,23.5,5.9,35.4-3.2,55l-5.6,14.8c0,0,13.6-35.3,21-52.4c7.5-17.1,9.6-16.9,23.7-16.9H450h79.1c14,0,16.2-0.2,23.7,16.9
		c7.5,17.1,21,52.4,21,52.4l-5.6-14.8c-9.1-19.7-5.1-31.5-3.2-55c1.9-23.5,39.6-302.7,39.6-302.7l18.7-0.2
		c94.6-26.6,205,33,228.4,45.8C851.7,116.3,847.2,151.8,830.2,194.8z"/>
</g>
<g id="fill">
</g>
</svg>
