<?xml version="1.0" encoding="UTF-8" standalone="no"?>
<svg
   xmlns:dc="http://purl.org/dc/elements/1.1/"
   xmlns:cc="http://creativecommons.org/ns#"
   xmlns:rdf="http://www.w3.org/1999/02/22-rdf-syntax-ns#"
   xmlns:svg="http://www.w3.org/2000/svg"
   xmlns="http://www.w3.org/2000/svg"
   xmlns:sodipodi="http://sodipodi.sourceforge.net/DTD/sodipodi-0.dtd"
   xmlns:inkscape="http://www.inkscape.org/namespaces/inkscape"
   version="1.1"
   x="0px"
   y="0px"
   viewBox="0 0 91.366524 91.366524"
   xml:space="preserve"
   id="svg4299"
   inkscape:version="0.91 r13725"
   sodipodi:docname="refresh.svg"
   width="91.366524"
   height="91.366524"><metadata
     id="metadata4313"><rdf:RDF><cc:Work
         rdf:about=""><dc:format>image/svg+xml</dc:format><dc:type
           rdf:resource="http://purl.org/dc/dcmitype/StillImage" /><dc:title></dc:title></cc:Work></rdf:RDF></metadata><defs
     id="defs4311" /><sodipodi:namedview
     pagecolor="#ffffff"
     bordercolor="#666666"
     borderopacity="1"
     objecttolerance="10"
     gridtolerance="10"
     guidetolerance="10"
     inkscape:pageopacity="0"
     inkscape:pageshadow="2"
     inkscape:window-width="1920"
     inkscape:window-height="1020"
     id="namedview4309"
     showgrid="false"
     fit-margin-top="0"
     fit-margin-left="0"
     fit-margin-right="0"
     fit-margin-bottom="0"
     inkscape:zoom="7.552"
     inkscape:cx="22.430226"
     inkscape:cy="47.139829"
     inkscape:window-x="0"
     inkscape:window-y="31"
     inkscape:window-maximized="1"
     inkscape:current-layer="svg4299" /><path
     style="fill:#eeeeee;fill-rule:evenodd;stroke:none;stroke-width:1px;stroke-linecap:butt;stroke-linejoin:miter;stroke-opacity:1;fill-opacity:1"
     d="M 7.0180085,-0.26483229 83.68644,-0.13241702 c 4.136779,0.007145 7.531204,2.25108782 7.54767,7.01800852 l 0.264831,76.6684315 c 0.01372,3.972435 -0.750758,8.139565 -7.944915,8.077332 L 7.0180084,90.969278 C 3.0411807,90.934876 0.27903085,88.591945 0.26483046,84.480931 L 4.7475733e-8,7.8124983 C -0.01189209,4.3697222 3.025744,-0.27172739 7.0180085,-0.26483229 Z"
     id="path4857"
     inkscape:connector-curvature="0"
     sodipodi:nodetypes="sssssssss" /><g
     id="g4301"
     transform="translate(2.6483052,-7.6800847)"><path
       d="m 42.4,87.6 c 8.9,0 17.7,-3.4 24.5,-10.1 4.2,-4.2 7.2,-9.4 8.8,-15 0.6,-2.1 -0.6,-4.3 -2.8,-4.9 -2.1,-0.6 -4.3,0.6 -4.9,2.8 -1.2,4.3 -3.6,8.3 -6.8,11.5 -10.4,10.4 -27.3,10.4 -37.7,0 -10.4,-10.4 -10.4,-27.3 0,-37.7 10.4,-10.4 27.3,-10.4 37.7,0 0.4,0.4 0.9,0.9 1.3,1.4 l -1.6,0 c 0,0 0,0 0,0 -2.2,0 -4,1.8 -4,4 0,2.2 1.8,4 4,4 L 75.8,43.7 76.4,28 c 0.1,-2.2 -1.6,-4.1 -3.8,-4.2 -2.2,-0.1 -4.1,1.6 -4.2,3.8 L 68.3,30 C 67.8,29.5 67.3,28.9 66.8,28.4 53.3,14.9 31.3,14.9 17.8,28.4 4.4,42 4.4,64 17.9,77.5 c 6.7,6.7 15.6,10.1 24.5,10.1 z"
       id="path4303"
       inkscape:connector-curvature="0" /></g></svg>